<svg class="w-12" width="109" height="79" viewBox="0 0 109 79" fill="none" xmlns="http://www.w3.org/2000/svg">
<path d="M8.38004 0C6.38004 0 0.0200286 0.629969 0.0200286 8.77997V66.68C0.0200286 66.75 -0.31997 72.4 2.74003 75.68C3.50488 76.4669 4.42812 77.0824 5.44868 77.4858C6.46924 77.8892 7.56385 78.0713 8.66004 78.02C10.8413 77.972 12.9309 77.1334 14.54 75.66C14.7468 75.5577 14.9744 75.5045 15.205 75.5045C15.4357 75.5045 15.6633 75.5577 15.87 75.66C16.1189 75.8677 16.3136 76.1327 16.4372 76.4324C16.5609 76.732 16.6099 77.0572 16.58 77.3799H17.68V41.0699H20.4V40.0699H8.85005V41.0699H12.24V72.27C12.3897 73.6262 12.0336 74.99 11.24 76.1C10.911 76.4419 10.5118 76.7084 10.0698 76.881C9.62786 77.0537 9.15368 77.1284 8.68003 77.1C8.28028 77.11 7.88278 77.037 7.5127 76.8855C7.14263 76.734 6.80803 76.5074 6.53004 76.22C5.45004 75.11 4.94003 73.0199 5.02003 70.0099C5.02003 69.9299 5.02003 69.87 5.02003 69.83V6.46997C5.02003 6.23997 5.27003 0.969971 8.18003 0.969971C11.09 0.969971 14.57 8.30997 15.76 22.34V24.55H16.76V0.649963H15.76V2.59998L15.67 2.65997C15.4416 2.8222 15.1701 2.91273 14.89 2.91998C14.5098 2.80594 14.1654 2.59587 13.89 2.31C12.3648 0.943162 10.424 0.12948 8.38004 0ZM87.38 77.4399H99.96V76.4399H95.6101V46.1899H101.01C101.936 46.2494 102.864 46.122 103.739 45.8152C104.614 45.5084 105.419 45.0286 106.104 44.4044C106.79 43.7801 107.343 43.0241 107.731 42.1815C108.118 41.3389 108.332 40.427 108.36 39.5V8.76996C108.36 1.36996 98.8901 1.22998 98.8001 1.22998H87.1V2.22998H90.1V76.47H87.34V77.47L87.38 77.4399ZM55.78 77.34H67.37V76.34H64.29L55.96 1.26996H51.43C51.02 5.19996 44.03 72.2699 44.03 73.1899C44.0032 74.0127 43.667 74.795 43.0887 75.3808C42.5103 75.9666 41.7324 76.3127 40.91 76.35H40.32V77.35H48.42V76.35H47.99C47.5805 76.3331 47.1787 76.2324 46.8096 76.0542C46.4404 75.876 46.1117 75.6241 45.8437 75.3139C45.5757 75.0037 45.3741 74.642 45.2514 74.2509C45.1286 73.8598 45.0873 73.4477 45.13 73.04L47.93 45.95H55.47L58.73 76.35H55.73V77.35L55.78 77.34ZM95.88 44.93H95.69V2.31H98.88C102.59 2.31 103.17 7.24 103.17 7.31V40.47C103.17 44.81 99.9 44.91 99.87 44.91H95.87L95.88 44.93ZM55.45 44.74H48.12V44.53L51.74 10.41L55.45 44.74Z" fill="white"/>
</svg>
