<svg width="447" class="" height="128" viewBox="0 0 447 128" fill="none" xmlns="http://www.w3.org/2000/svg">
<g clip-path="url(#clip0_692_51)">
<path d="M154.399 70.8999C150.599 68.7999 148.599 67.0999 148.599 64.6999C148.599 61.5999 151.299 59.6999 155.599 59.6999C160.599 59.6999 164.999 61.7999 164.999 61.7999L168.499 51.0999C168.499 51.0999 165.299 48.5999 155.799 48.5999C142.599 48.5999 133.399 56.1999 133.399 66.7999C133.399 72.7999 137.699 77.3999 143.399 80.6999C147.999 83.2999 149.599 85.1999 149.599 87.8999C149.599 90.7999 147.299 93.0999 142.999 93.0999C136.599 93.0999 130.599 89.7999 130.599 89.7999L126.899 100.5C126.899 100.5 132.499 104.2 141.799 104.2C155.399 104.2 165.099 97.4999 165.099 85.4999C165.299 78.8999 160.299 74.2999 154.399 70.8999Z" fill="white"/>
<path d="M208.6 48.3999C201.9 48.3999 196.7 51.5999 192.6 56.3999L192.4 56.2999L198.2 25.8999H183L168.3 103.2H183.4L188.4 76.7999C190.4 66.7999 195.5 60.6999 200.3 60.6999C203.7 60.6999 205 62.9999 205 66.2999C205 68.3999 204.8 70.8999 204.3 72.9999L198.6 103.3H213.7L219.6 72.0999C220.3 68.7999 220.7 64.8999 220.7 62.1999C220.9 53.4999 216.5 48.3999 208.6 48.3999Z" fill="white"/>
<path d="M255.1 48.3999C236.9 48.3999 224.8 64.7999 224.8 83.0999C224.8 94.7999 232 104.3 245.6 104.3C263.5 104.3 275.5 88.2999 275.5 69.5999C275.6 58.6999 269.3 48.3999 255.1 48.3999ZM247.7 92.5999C242.5 92.5999 240.4 88.1999 240.4 82.6999C240.4 73.9999 244.9 59.8999 253.1 59.8999C258.5 59.8999 260.2 64.4999 260.2 68.9999C260.2 78.3999 255.7 92.5999 247.7 92.5999Z" fill="white"/>
<path d="M314.299 48.3999C304.099 48.3999 298.299 57.3999 298.299 57.3999H298.099L298.999 49.2999H285.599C284.899 54.7999 283.699 63.0999 282.499 69.3999L271.999 124.6H287.099L291.299 102.2H291.599C291.599 102.2 294.699 104.2 300.499 104.2C318.299 104.2 329.899 85.9999 329.899 67.5999C329.899 57.4999 325.399 48.3999 314.299 48.3999ZM299.899 92.8999C295.999 92.8999 293.699 90.6999 293.699 90.6999L296.199 76.5999C297.999 67.1999 302.899 60.8999 308.099 60.8999C312.699 60.8999 314.099 65.1999 314.099 69.1999C314.099 78.8999 308.299 92.8999 299.899 92.8999Z" fill="white"/>
<path d="M351.5 26.7C346.7 26.7 342.8 30.5 342.8 35.5C342.8 40 345.6 43.0999 349.9 43.0999H350.1C354.8 43.0999 358.9 39.8999 359 34.2999C359.1 29.7999 356.1 26.7 351.5 26.7Z" fill="white"/>
<path d="M330.3 103.2H345.5L355.8 49.5999H340.5L330.3 103.2Z" fill="white"/>
<path d="M394.2 49.4999H383.7L384.2 46.9999C385.1 41.7999 388.1 37.1999 393.2 37.1999C395.9 37.1999 398 37.9999 398 37.9999L401 26.1999C401 26.1999 398.4 24.8999 392.8 24.8999C387.4 24.8999 382.1 26.3999 378 29.8999C372.8 34.2999 370.4 40.5999 369.2 46.9999L368.8 49.4999H361.8L359.6 60.8999H366.6L358.6 103.2H373.7L381.7 60.8999H392.1L394.2 49.4999Z" fill="white"/>
<path d="M430.599 49.5999C430.599 49.5999 421.099 73.3999 416.899 86.3999H416.699C416.399 82.1999 412.999 49.5999 412.999 49.5999H397.099L406.199 98.7999C406.399 99.8999 406.299 100.6 405.899 101.3C404.099 104.7 401.199 108 397.699 110.4C394.899 112.5 391.699 113.8 389.199 114.7L393.399 127.5C396.499 126.8 402.799 124.3 408.199 119.3C415.099 112.8 421.499 102.9 427.999 89.2999L446.499 49.5999H430.599Z" fill="white"/>
<path d="M74.7998 14.8C74.7998 14.8 73.3998 15.2 71.0998 15.9C70.6998 14.6 70.0998 13.1 69.2998 11.5C66.6998 6.50002 62.7998 3.80002 58.1998 3.80002C57.8998 3.80002 57.5998 3.80002 57.1998 3.90002C57.0998 3.70002 56.8998 3.60002 56.7998 3.40002C54.7998 1.20002 52.1998 0.200022 49.0998 0.300022C43.0998 0.500022 37.0998 4.80002 32.2998 12.5C28.8998 17.9 26.2998 24.7 25.5998 30C18.6998 32.1 13.8998 33.6 13.7998 33.7C10.2998 34.8 10.1998 34.9 9.7998 38.2C9.4998 40.7 0.299805 111.1 0.299805 111.1L75.8998 124.2V14.7C75.2998 14.7 74.9998 14.8 74.7998 14.8ZM57.2998 20.2C53.2998 21.4 48.8998 22.8 44.5998 24.1C45.7998 19.4 48.1998 14.7 50.9998 11.6C52.0998 10.5 53.5998 9.20002 55.2998 8.40002C56.9998 12 57.3998 16.9 57.2998 20.2ZM49.0998 4.40002C50.4998 4.40002 51.6998 4.70002 52.6998 5.30002C51.0998 6.10002 49.4998 7.40002 47.9998 8.90002C44.1998 13 41.2998 19.4 40.0998 25.5C36.4998 26.6 32.8998 27.7 29.5998 28.7C31.7998 19.1 39.8998 4.60002 49.0998 4.40002ZM37.4998 59.4C37.8998 65.8 54.7998 67.2 55.7998 82.3C56.4998 94.2 49.4998 102.3 39.3998 102.9C27.1998 103.7 20.4998 96.5 20.4998 96.5L23.0998 85.5C23.0998 85.5 29.7998 90.6 35.1998 90.2C38.6998 90 39.9998 87.1 39.8998 85.1C39.3998 76.7 25.5998 77.2 24.6998 63.4C23.8998 51.8 31.4998 40.1 48.2998 39C54.7998 38.6 58.0998 40.2 58.0998 40.2L54.2998 54.6C54.2998 54.6 49.9998 52.6 44.8998 53C37.4998 53.5 37.3998 58.2 37.4998 59.4ZM61.2998 19C61.2998 16 60.8998 11.7 59.4998 8.10002C64.0998 9.00002 66.2998 14.1 67.2998 17.2C65.4998 17.7 63.4998 18.3 61.2998 19Z" fill="white"/>
<path d="M78.2002 124L109.6 116.2C109.6 116.2 96.1002 24.8999 96.0002 24.2999C95.9002 23.6999 95.4002 23.2999 94.9002 23.2999C94.4002 23.2999 85.6002 23.0999 85.6002 23.0999C85.6002 23.0999 80.2002 17.8999 78.2002 15.8999V124Z" fill="white"/>
</g>
<defs>
<clipPath id="clip0_692_51">
<rect width="446.3" height="127.5" fill="white"/>
</clipPath>
</defs>
</svg>
