<svg width="1137" height="595" viewBox="0 0 1137 595" fill="none" xmlns="http://www.w3.org/2000/svg">
<g clip-path="url(#clip0_1031_448)">
<path d="M400.995 505.129H299.921V594.334H400.995V505.129Z" fill="black"/>
<path d="M400.856 286.54C400.853 285.865 400.984 285.196 401.241 284.571C401.497 283.947 401.875 283.379 402.351 282.901C402.828 282.422 403.394 282.043 404.018 281.784C404.641 281.525 405.31 281.391 405.985 281.391L505.528 281.511V188.886C505.528 182.264 502.897 175.913 498.214 171.23C493.532 166.547 487.18 163.916 480.558 163.916H235.806C230.951 163.914 226.201 165.327 222.137 167.982C218.073 170.638 214.871 174.42 212.923 178.867L157.595 305.149L10.7158 407.316C7.40751 409.618 4.70514 412.686 2.83924 416.259C0.973338 419.831 -0.000767323 423.802 7.91467e-06 427.833V569.343C-0.0026042 572.624 0.641373 575.873 1.89508 578.905C3.14878 581.937 4.98763 584.692 7.30659 587.013C9.62555 589.333 12.3791 591.175 15.41 592.431C18.4408 593.687 21.6894 594.333 24.9702 594.333H187.794V500.894C187.794 499.585 188.313 498.328 189.237 497.401C190.161 496.473 191.415 495.949 192.724 495.944H293.818V397.952C293.818 396.644 294.337 395.39 295.262 394.465C296.187 393.541 297.441 393.021 298.748 393.021H400.856V286.54Z" fill="black"/>
<path d="M405.984 398.29V495.905H505.587V398.231L405.984 398.29Z" fill="black"/>
<path d="M1132.75 106.163H892.904L732.248 2.62424C729.585 0.913412 726.487 0.00263905 723.322 0H357.854L353.6 4.25447V114.712L357.854 118.966H556.761V278.986L792.844 279.264V214.016C793.271 212.288 794.092 210.681 795.242 209.323C796.392 207.964 797.841 206.89 799.475 206.183C801.109 205.477 802.884 205.158 804.662 205.251C806.44 205.344 808.172 205.847 809.723 206.72L1019.19 327.654C1020.9 328.642 1022.31 330.062 1023.3 331.772C1024.29 333.482 1024.81 335.422 1024.81 337.396C1024.81 339.37 1024.29 341.309 1023.3 343.019C1022.31 344.729 1020.9 346.149 1019.19 347.137L809.723 468.091C808.002 469.069 806.056 469.583 804.077 469.582C801.494 469.542 798.996 468.655 796.966 467.056C794.937 465.458 793.489 463.237 792.844 460.736V395.487L556.761 395.606V590.079L561.015 594.334H1034.49C1037.63 594.338 1040.71 593.433 1043.34 591.73L1129.39 536.819C1131.72 535.326 1133.64 533.268 1134.97 530.835C1136.3 528.403 1136.99 525.674 1136.98 522.903V110.457L1132.75 106.163Z" fill="black"/>
</g>
<defs>
<clipPath id="clip0_1031_448">
<rect width="1137" height="594.334" fill="white"/>
</clipPath>
</defs>
</svg>
